<svg width="15" height="15" viewBox="0 0 15 15" fill="none" xmlns="http://www.w3.org/2000/svg">
<path d="M13.6933 0.307372L13.6933 0.30735C13.9695 0.0309793 14.416 0.0312981 14.6926 0.30789L14.6927 0.307912C14.9691 0.584193 14.9691 1.03074 14.6926 1.30725L8.57007 7.42981C8.55131 7.44857 8.54077 7.47401 8.54078 7.50054C8.54078 7.52706 8.55133 7.5525 8.57009 7.57125L14.6927 13.6897C14.9691 13.9659 14.9691 14.4125 14.6926 14.689L14.6926 14.689C14.4163 14.9655 13.9698 14.9655 13.6933 14.689L7.57071 8.56644C7.55196 8.54769 7.52652 8.53715 7.5 8.53715C7.47348 8.53715 7.44804 8.54769 7.42929 8.56644L1.30673 14.689L1.30671 14.689C1.03042 14.9655 0.58388 14.9655 0.307372 14.689L0.30735 14.689C0.0308956 14.4127 0.0308639 13.9662 0.307372 13.6896L6.42991 7.57073C6.44868 7.55198 6.45922 7.52654 6.45922 7.50002C6.45923 7.47349 6.44869 7.44805 6.42993 7.42929L0.307372 1.30673L0.30735 1.30671C0.0308956 1.03042 0.0308639 0.58388 0.307372 0.307372L0.307394 0.30735C0.583676 0.0308956 1.03022 0.0308639 1.30673 0.307372L7.42929 6.42993C7.44804 6.44869 7.47348 6.45922 7.5 6.45922C7.52652 6.45922 7.55196 6.44869 7.57071 6.42993L13.6933 0.307372Z" fill="#0C0C0C" stroke="#8A6E9F" stroke-width="0.2" stroke-linejoin="round"/>
</svg>
