<svg width="20" height="20" viewBox="0 0 20 20" fill="none" xmlns="http://www.w3.org/2000/svg">
<path fill-rule="evenodd" clip-rule="evenodd" d="M0 3.92856C0 2.74509 0.95939 1.78571 2.14286 1.78571H17.8571C19.0406 1.78571 20 2.74509 20 3.92856V4.41706L10.5477 10.7197C10.4144 10.8054 10.2209 10.8666 9.99999 10.8666C9.7791 10.8666 9.58559 10.8054 9.45227 10.7197L0 4.41708V3.92856ZM0 6.56335V16.0714C0 17.2548 0.95939 18.2143 2.14286 18.2143H17.8571C19.0406 18.2143 20 17.2548 20 16.0714V6.56333L11.5334 12.2087L11.5252 12.2142L11.5252 12.2142C11.0757 12.5067 10.5359 12.6523 9.99999 12.6523C9.46409 12.6523 8.92431 12.5067 8.47481 12.2142L8.46653 12.2088L8.46656 12.2087L0 6.56335Z" fill="#373737"/>
</svg>
