<svg width="20" height="20" viewBox="0 0 20 20" fill="none" xmlns="http://www.w3.org/2000/svg">
<g clip-path="url(#clip0_79_460)">
<path d="M11.2812 9.8565C11.2812 12.9988 8.75578 15.5461 5.6407 15.5461C2.52561 15.5461 0 12.9982 0 9.8565C0 6.71481 2.52542 4.16675 5.6407 4.16675C8.75598 4.16675 11.2812 6.71423 11.2812 9.8565Z" fill="#373737"/>
<path d="M17.4691 9.85646C17.4691 12.8142 16.2064 15.2129 14.6487 15.2129C13.0911 15.2129 11.8284 12.8142 11.8284 9.85646C11.8284 6.8987 13.0909 4.5 14.6485 4.5C16.2062 4.5 17.4689 6.89793 17.4689 9.85646" fill="#373737"/>
<path d="M20 9.8564C20 12.5058 19.556 14.6549 19.0081 14.6549C18.4602 14.6549 18.0164 12.5064 18.0164 9.8564C18.0164 7.2064 18.4604 5.05786 19.0081 5.05786C19.5558 5.05786 20 7.2062 20 9.8564Z" fill="#373737"/>
</g>
<defs>
<clipPath id="clip0_79_460">
<rect width="20" height="20" fill="#373737"/>
</clipPath>
</defs>
</svg>
