<svg width="216" height="437" viewBox="0 0 216 437" fill="none" xmlns="http://www.w3.org/2000/svg">
<path fill-rule="evenodd" clip-rule="evenodd" d="M32 0H0V32.5H4.5L16.5 10.5L32 2V0Z" fill="#FFF5C0"/>
<path fill-rule="evenodd" clip-rule="evenodd" d="M32 436H0V403.5H4.5L16.5 425.5L32 434V436Z" fill="#FFF5C0"/>
<path fill-rule="evenodd" clip-rule="evenodd" d="M215 403.5V436H181V434L196.5 425.5L208.5 403.5H215Z" fill="#FFF5C0"/>
<path fill-rule="evenodd" clip-rule="evenodd" d="M215 32.5H208.5L196.5 10.5L181 2V0H215V32.5Z" fill="#FFF5C0"/>
<path fill-rule="evenodd" clip-rule="evenodd" d="M1.98262 53.455C1.98262 34.8563 1.98262 25.5569 5.60217 18.4531C8.78601 12.2045 13.8663 7.12419 20.115 3.94035C27.2187 0.320801 36.5181 0.320801 55.1168 0.320801H159.997C178.596 0.320801 187.895 0.320801 194.999 3.94035C201.248 7.12419 206.328 12.2045 209.512 18.4531C213.131 25.5569 213.131 34.8563 213.131 53.455V131.174C214.226 131.174 215.113 132.062 215.113 133.156V178.261C215.113 179.356 214.226 180.243 213.131 180.243V383.363C213.131 401.961 213.131 411.261 209.512 418.364C206.328 424.613 201.248 429.693 194.999 432.877C187.895 436.497 178.596 436.497 159.997 436.497H55.1167C36.5181 436.497 27.2187 436.497 20.115 432.877C13.8663 429.693 8.78601 424.613 5.60217 418.364C1.98262 411.261 1.98262 401.961 1.98262 383.363V192.139C0.887649 192.139 0 191.252 0 190.157V163.391C0 162.296 0.887649 161.409 1.98262 161.409V149.513C0.887649 149.513 0 148.625 0 147.53V120.765C0 119.67 0.887649 118.782 1.98262 118.782V102.921C0.887649 102.921 0 102.034 0 100.939V90.0343C0 88.9393 0.887649 88.0516 1.98262 88.0516V53.455ZM13.55 22.5036C10.9028 27.6989 10.9028 34.5 10.9028 48.102V388.716C10.9028 402.318 10.9028 409.119 13.55 414.314C15.8784 418.884 19.5939 422.599 24.1638 424.928C29.3591 427.575 36.1601 427.575 49.7622 427.575H165.349C178.951 427.575 185.752 427.575 190.947 424.928C195.517 422.599 199.232 418.884 201.561 414.314C204.208 409.119 204.208 402.318 204.208 388.716V48.102C204.208 34.5 204.208 27.6989 201.561 22.5036C199.232 17.9337 195.517 14.2183 190.947 11.8898C185.752 9.24268 178.951 9.24268 165.349 9.24268H49.7621C36.1601 9.24268 29.3591 9.24268 24.1638 11.8898C19.5939 14.2183 15.8784 17.9337 13.55 22.5036ZM146.717 19.6859C145.627 22.072 143.714 24.0198 141.328 25.1095C139.17 26.0949 136.397 26.0949 130.85 26.0949H84.2586C78.712 26.0949 75.9387 26.0949 73.7809 25.1095C71.3948 24.0198 69.4815 22.072 68.3918 19.6859C67.5196 17.7761 67.4192 15.4146 67.4076 11.0475C67.4062 10.5114 67.3373 9.92871 66.9175 9.59526C66.6377 9.37302 66.2876 9.24268 65.9194 9.24268H149.189C148.821 9.24268 148.471 9.37302 148.191 9.59526C147.771 9.92871 147.703 10.5114 147.701 11.0475C147.69 15.4146 147.589 17.7761 146.717 19.6859Z" fill="white"/>
</svg>
